<svg xmlns="http://www.w3.org/2000/svg" width="57" height="50"><path fill="#323232" fill-rule="evenodd" d="M17 18.7l-.6.6a4.8 4.8 0 0 0-.6 6.5c.4.5.9 1 1.6 1.3l.2.1-.2.7a12.6 12.6 0 0 1-2.9 4.3c-.7.6-1.5.8-2.4.6l-1.4-.5-1.4-.2c-.6 0-1.2.1-1.7.3l-1.3.5c-.7.1-1.3 0-1.9-.5-.6-.4-1-.9-1.4-1.5-1-1.4-1.8-3-2.2-4.7a11 11 0 0 1-.3-4.6C.7 20.3 1.2 19 2 18c1-1 2.2-1.5 3.6-1.3.7 0 1.4.3 2 .5l1 .2h1.2l1.6-.6c.8-.3 1.7-.3 2.5-.2 1.1.3 2 .9 2.7 1.7l.3.3M13 11.9v.7a5 5 0 0 1-2.7 4.2l-1.4.2c0-2.8 1.4-4.6 4-5.1M23 15c1.1-.2 2.5-.4 4.3-.4 2.3 0 4 .6 5 1.5s1.5 2.1 1.5 3.7-.5 3-1.4 3.8c-1.1 1.3-3.1 2-5.3 2-.7 0-1.3 0-1.8-.2v7.2H23V15zm2.3 8.6l1.8.1c2.8 0 4.4-1.3 4.4-3.8 0-2.3-1.6-3.4-4.1-3.4l-2.1.1v7zm16.7 9l-.2-1.7c-.8 1-2.1 2-4 2-2.5 0-3.8-1.9-3.8-3.7 0-3.1 2.7-4.8 7.6-4.8v-.2c0-1.1-.3-3-2.9-3-1.2 0-2.4.4-3.3 1l-.5-1.6c1-.7 2.6-1.1 4.2-1.1 3.8 0 4.7 2.7 4.7 5.2v4.8c0 1.1 0 2.2.2 3h-2zm-.4-6.6c-2.5 0-5.3.4-5.3 3 0 1.4 1 2.1 2.2 2.1 1.6 0 2.6-1 3-2.1l.1-.7V26zm5.3-6.2l2.7 7.5.8 2.6h.1l.8-2.6 2.5-7.5h2.4l-3.4 9c-1.7 4.5-2.8 6.7-4.3 8a6.2 6.2 0 0 1-2.8 1.6l-.6-2a6 6 0 0 0 2-1.1 7 7 0 0 0 2.1-3.1c0-.2 0-.4-.2-.7L44.3 20h2.5z"/></svg>