<?xml version="1.0" encoding="utf-8"?>
<!-- Generator: Adobe Illustrator 22.1.0, SVG Export Plug-In . SVG Version: 6.00 Build 0)  -->
<!DOCTYPE svg PUBLIC "-//W3C//DTD SVG 1.1//EN" "http://www.w3.org/Graphics/SVG/1.1/DTD/svg11.dtd">
<svg version="1.1" id="Layer_1" xmlns="http://www.w3.org/2000/svg" xmlns:xlink="http://www.w3.org/1999/xlink" x="0px" y="0px"
	 viewBox="0 0 346 212" style="enable-background:new 0 0 346 212;" xml:space="preserve">
<style type="text/css">
	.st0{fill:#0071CF;}
	.st1{fill:#FFFFFF;}
</style>
<g>
	<g>
		<path class="st0" d="M117.1,112.8c2.2,0,3.7-0.9,4.6-2.8c0.9-1.8,1.4-4.5,1.4-8c0-3.5-0.5-6.1-1.4-7.9c-0.9-1.8-2.5-2.7-4.7-2.7
			c-2.2,0-3.7,0.9-4.7,2.7c-0.9,1.8-1.4,4.4-1.4,7.9s0.5,6.2,1.4,8C113.3,111.9,114.9,112.8,117.1,112.8z"/>
		<path class="st0" d="M188.5,94.2c0.8,0.5,3.1,1.5,7,3c2.9,1.2,5,2.3,6.4,3.5c1.4,1.1,2.4,2.5,3.1,4c0.4,1,0.7,2.1,0.8,3.3V91.2
			h-2.9l-1.1,2.6c-1.9-0.8-3.9-1.6-6-2.2c-2.1-0.6-3.8-0.9-5.1-0.9c-2.3,0-3.5,0.6-3.5,1.7C187.3,93.1,187.7,93.7,188.5,94.2z"/>
		<path class="st0" d="M245.6,112.8c2.2,0,3.7-0.9,4.6-2.8s1.4-4.5,1.4-8c0-3.5-0.5-6.1-1.4-7.9c-0.9-1.8-2.5-2.7-4.7-2.7
			c-2.2,0-3.7,0.9-4.7,2.7c-0.9,1.8-1.4,4.4-1.4,7.9s0.5,6.2,1.4,8S243.4,112.8,245.6,112.8z"/>
		<path class="st0" d="M188.1,113.3c3.1,0,4.6-0.7,4.6-2.1c0-0.7-0.4-1.4-1.3-1.9s-3.3-1.7-7.5-3.3c-3.8-1.5-6.4-3.3-7.9-5.3
			c-0.5-0.6-0.9-1.3-1.2-2.1v11.7c1.9,0.8,4,1.5,6.2,2C183.7,113,186,113.3,188.1,113.3z"/>
		<path class="st0" d="M284,106.8L243.7,7.4c-1.9-4.6-7.2-6.9-11.8-5L64.5,70.2c-4.6,1.9-6.9,7.2-5,11.8l17.7,43.6
			c0.8,0.1,1.5,0.2,2.3,0.2c2.7,0,4.1-1.9,4.1-5.6V82.9H97V97c0.7-4.3,2.4-7.9,5-10.6c3.6-3.7,8.7-5.5,15.2-5.5
			c4,0,7.6,0.9,10.7,2.6c3.1,1.7,5.5,4.2,7.1,7.4c1,1.8,1.6,3.8,2,6V82.2h13.4v22.4c0,2.7,0,4.7,0.7,6.1c0.7,1.4,1.9,2.1,3.6,2.1
			c2.3,0,5.4-0.3,6.8-2.1c0-2,0-5.9,0-10.5V82.2h13.4v6.1c0.7-1.5,1.8-2.8,3.3-3.9c2.9-2.1,7.1-3.2,12.5-3.2c2.7,0,5.2,0.3,7.6,0.9
			c1.5,0.4,3,0.9,4.6,1.5l3.8-0.6l-0.1-9.9h13.4v9.5h7v8.6h-7v17.2c0,2.7,1.3,4.5,3.8,4.5c1,0,2.1-0.2,3.3-0.4
			c-1.4-3-2.1-6.5-2.1-10.5c0-6.7,1.8-11.9,5.4-15.6c3.6-3.7,8.7-5.5,15.2-5.5c4,0,7.6,0.9,10.7,2.6c3.1,1.7,5.5,4.2,7.1,7.4
			c1.7,3.2,2.5,6.9,2.5,11.2c0,6.7-1.8,11.9-5.4,15.7c-3.6,3.7-8.6,5.6-15.1,5.6c-6.2,0-11.2-1.9-14.8-5.7c-1.3-1.3-2.3-2.8-3.2-4.5
			v8.3c-0.7,0.2-1.5,0.4-2.2,0.6c-1.7,0.3-3.7,0.5-6.1,0.5c-4.7,0-8.2-1.2-10.3-3.5c-1.8-1.9-2.8-3.9-3-7.4
			c-0.3,3.8-1.7,6.7-4.4,8.7c-3,2.2-7.3,3.4-12.9,3.4c-3,0-5.7-0.2-7.9-0.5c-1.9-0.3-3.9-1.1-5.9-1.8v0.9h-11.8l0-4.2h-0.8
			c-1.1,1.9-3.1,2.6-5.1,3.6c-2,1-4.4,1.5-7.1,1.5c-4.3,0-7.6-1.3-10-3.9c-2.4-2.6-3.2-5.5-3.2-10.3v-1.3c-0.8,4.1-2.4,7.5-4.9,10.1
			c-3.6,3.7-8.6,5.6-15.1,5.6c-6.2,0-11.2-1.9-14.8-5.7c-2.7-2.8-4.4-6.4-5.1-10.7v16.1c0,4.1-1.3,7.3-3.8,9.6
			c-2.5,2.3-6.1,3.5-10.7,3.5c-0.4,0-0.8,0-1.2,0l9.2,22.6h90l98.5-39.9C283.7,116.8,285.9,111.5,284,106.8z M90.3,79.7
			c-4.7,0-7.1-1.9-7.1-5.8c0-2,0.6-3.5,1.7-4.4c1.1-1,2.9-1.5,5.4-1.5c2.5,0,4.3,0.5,5.5,1.5c1.1,1,1.7,2.5,1.7,4.4
			C97.5,77.7,95.1,79.7,90.3,79.7z"/>
		<path class="st1" d="M90.3,68c-2.5,0-4.3,0.5-5.4,1.5c-1.1,1-1.7,2.4-1.7,4.4c0,3.9,2.4,5.8,7.1,5.8c4.8,0,7.2-1.9,7.2-5.8
			c0-1.9-0.6-3.4-1.7-4.4C94.6,68.5,92.8,68,90.3,68z"/>
		<path class="st1" d="M93.2,132.5c2.5-2.3,3.8-5.5,3.8-9.6v-16.1c0.7,4.3,2.4,7.9,5.1,10.7c3.7,3.8,8.6,5.7,14.8,5.7
			c6.5,0,11.5-1.9,15.1-5.6c2.5-2.6,4.1-6,4.9-10.1v1.3c0,4.8,0.8,7.7,3.2,10.3c2.4,2.6,5.7,3.9,10,3.9c2.7,0,5.1-0.5,7.1-1.5
			c2-1,3.9-1.7,5.1-3.6h0.8l0,4.2h11.8v-0.9c2,0.8,4,1.6,5.9,1.8c2.2,0.3,4.9,0.5,7.9,0.5c5.6,0,9.9-1.1,12.9-3.4
			c2.7-2,4.2-4.9,4.4-8.7c0.3,3.4,1.3,5.4,3,7.4c2.1,2.3,5.5,3.5,10.3,3.5c2.3,0,4.3-0.2,6.1-0.5c0.7-0.1,1.4-0.4,2.2-0.6V113
			c0.8,1.7,1.9,3.2,3.2,4.5c3.7,3.8,8.6,5.7,14.8,5.7c6.5,0,11.5-1.9,15.1-5.6c3.6-3.7,5.4-9,5.4-15.7c0-4.3-0.8-8-2.5-11.2
			c-1.7-3.2-4.1-5.6-7.1-7.4c-3.1-1.7-6.6-2.6-10.7-2.6c-6.5,0-11.6,1.8-15.2,5.5c-3.6,3.7-5.4,8.9-5.4,15.6c0,4,0.7,7.5,2.1,10.5
			c-1.2,0.3-2.3,0.4-3.3,0.4c-2.6,0-3.8-1.8-3.8-4.5V91.2h7v-8.6h-7v-9.5h-13.4l0.1,9.9l-3.8,0.6c-1.6-0.6-3.1-1.1-4.6-1.5
			c-2.4-0.6-4.9-0.9-7.6-0.9c-5.4,0-9.5,1.1-12.5,3.2c-1.5,1.1-2.6,2.4-3.3,3.9v-6.1h-13.4v17.9c0,4.6,0,8.5,0,10.5
			c-1.4,1.7-4.5,2.1-6.8,2.1c-1.6,0-2.8-0.7-3.6-2.1c-0.7-1.4-0.7-3.4-0.7-6.1V82.2H137v14.6c-0.4-2.2-1.1-4.2-2-6
			c-1.7-3.2-4.1-5.6-7.1-7.4c-3.1-1.7-6.6-2.6-10.7-2.6c-6.5,0-11.6,1.8-15.2,5.5c-2.7,2.7-4.3,6.3-5,10.6V82.9H83.5v37.4
			c0,3.7-1.4,5.6-4.1,5.6c-0.7,0-1.5-0.1-2.3-0.2l4.2,10.4c0.4,0,0.8,0,1.2,0C87.1,136,90.7,134.8,93.2,132.5z M240.9,94.1
			c0.9-1.8,2.5-2.7,4.7-2.7c2.2,0,3.8,0.9,4.7,2.7c0.9,1.8,1.4,4.4,1.4,7.9c0,3.5-0.5,6.2-1.4,8s-2.5,2.8-4.6,2.8
			c-2.2,0-3.8-0.9-4.7-2.8s-1.4-4.5-1.4-8S239.9,95.8,240.9,94.1z M190.7,90.7c1.3,0,3,0.3,5.1,0.9c2.1,0.6,4.1,1.3,6,2.2l1.1-2.6
			h2.9V108c-0.2-1.2-0.4-2.3-0.8-3.3c-0.7-1.5-1.7-2.9-3.1-4c-1.4-1.1-3.5-2.3-6.4-3.5c-3.9-1.5-6.2-2.5-7-3
			c-0.8-0.5-1.2-1.1-1.2-1.8C187.3,91.3,188.4,90.7,190.7,90.7z M174.9,98.7c0.3,0.7,0.7,1.4,1.2,2.1c1.5,2,4.1,3.7,7.9,5.3
			c4.1,1.6,6.6,2.7,7.5,3.3s1.3,1.2,1.3,1.9c0,1.4-1.5,2.1-4.6,2.1c-2,0-4.4-0.3-7-0.9c-2.2-0.5-4.3-1.2-6.2-2V98.7z M112.3,94.1
			c0.9-1.8,2.5-2.7,4.7-2.7c2.2,0,3.8,0.9,4.7,2.7c0.9,1.8,1.4,4.4,1.4,7.9c0,3.5-0.5,6.2-1.4,8c-0.9,1.8-2.5,2.8-4.6,2.8
			c-2.2,0-3.8-0.9-4.7-2.8c-0.9-1.8-1.4-4.5-1.4-8S111.4,95.8,112.3,94.1z"/>
	</g>
	<g>
		<path class="st0" d="M1.8,209.9v-29h7.8v22.7h11.2v6.3H1.8z"/>
		<path class="st0" d="M37.7,209.9l-1.5-3H36c-1,1.3-2.1,2.2-3.2,2.7s-2.5,0.7-4.2,0.7c-2.1,0-3.8-0.6-5-1.9s-1.8-3.1-1.8-5.4
			c0-2.4,0.8-4.2,2.5-5.3c1.7-1.2,4.1-1.8,7.2-2l3.8-0.1v-0.3c0-1.9-0.9-2.8-2.7-2.8c-1.6,0-3.7,0.6-6.3,1.7l-2.2-5.1
			c2.6-1.3,5.9-2,9.9-2c2.9,0,5.1,0.7,6.7,2.1c1.6,1.4,2.4,3.4,2.4,6v14.7H37.7z M31.9,204.8c0.9,0,1.7-0.3,2.4-0.9s1-1.4,1-2.3
			v-1.7l-1.8,0.1c-2.6,0.1-3.8,1-3.8,2.8C29.7,204.1,30.4,204.8,31.9,204.8z"/>
		<path class="st0" d="M63.7,203c0,2.4-0.8,4.2-2.5,5.5c-1.6,1.2-4,1.8-7.1,1.8c-1.7,0-3.1-0.1-4.3-0.3c-1.2-0.2-2.5-0.5-3.8-1v-6.2
			c1.2,0.5,2.5,1,4,1.3c1.4,0.3,2.7,0.5,3.8,0.5c1.7,0,2.5-0.4,2.5-1.2c0-0.4-0.2-0.8-0.7-1.1c-0.5-0.3-1.8-0.9-4.1-1.8
			c-2.1-0.8-3.5-1.8-4.3-2.9c-0.8-1.1-1.2-2.4-1.2-4.1c0-2.1,0.8-3.7,2.4-4.9c1.6-1.2,3.9-1.7,6.8-1.7c1.5,0,2.9,0.2,4.2,0.5
			c1.3,0.3,2.7,0.8,4.1,1.4l-2.1,5c-1-0.5-2.1-0.9-3.3-1.2s-2.1-0.5-2.8-0.5c-1.3,0-1.9,0.3-1.9,0.9c0,0.4,0.2,0.7,0.7,1
			s1.7,0.8,3.8,1.7c1.6,0.6,2.8,1.3,3.5,1.9c0.8,0.6,1.3,1.4,1.7,2.2C63.5,200.8,63.7,201.8,63.7,203z"/>
		<path class="st0" d="M73.5,197.2c0.9-1.5,1.7-2.7,2.4-3.5l5-6.4h8.7l-7.8,9.6l8.3,12.9h-8.9l-4.9-8.1l-2.5,1.9v6.1h-7.8V179h7.8
			v12.1c0,2.1-0.1,4.1-0.4,6.1H73.5z"/>
		<path class="st0" d="M106.7,209.9l-1-2.8h-0.5c-0.6,1-1.6,1.8-2.7,2.4s-2.5,0.8-4.1,0.8c-2.5,0-4.4-0.7-5.8-2.2
			c-1.4-1.4-2.1-3.5-2.1-6.1v-14.6h7.8v12.3c0,1.5,0.2,2.6,0.6,3.3c0.4,0.8,1.1,1.1,2.1,1.1c1.3,0,2.3-0.5,2.9-1.6
			c0.6-1.1,0.9-2.8,0.9-5.3v-9.8h7.8v22.5H106.7z"/>
		<path class="st0" d="M123.5,195.5c0-1.2,0.4-2.2,1.1-2.8c0.7-0.7,1.8-1,3.1-1c1.3,0,2.3,0.3,3,1c0.7,0.7,1.1,1.6,1.1,2.8
			c0,1.2-0.4,2.1-1.1,2.8c-0.7,0.7-1.7,1-3,1c-1.3,0-2.4-0.3-3.1-1C123.8,197.7,123.5,196.7,123.5,195.5z"/>
		<path class="st0" d="M170.3,195.3c0,4.9-1.2,8.6-3.6,11.1c-2.4,2.5-5.9,3.8-10.5,3.8c-4.6,0-8-1.3-10.5-3.8
			c-2.4-2.6-3.6-6.3-3.6-11.2c0-4.8,1.2-8.5,3.6-11.1c2.4-2.5,5.9-3.8,10.5-3.8c4.6,0,8.1,1.3,10.5,3.8
			C169.1,186.7,170.3,190.4,170.3,195.3z M150.3,195.3c0,5.6,2,8.4,5.9,8.4c2,0,3.5-0.7,4.4-2c1-1.4,1.4-3.5,1.4-6.4
			c0-2.9-0.5-5-1.5-6.4s-2.4-2.1-4.4-2.1C152.3,186.8,150.3,189.7,150.3,195.3z"/>
		<path class="st0" d="M190.4,203c0,2.4-0.8,4.2-2.5,5.5c-1.6,1.2-4,1.8-7.1,1.8c-1.7,0-3.1-0.1-4.3-0.3c-1.2-0.2-2.5-0.5-3.8-1
			v-6.2c1.2,0.5,2.5,1,4,1.3c1.4,0.3,2.7,0.5,3.8,0.5c1.7,0,2.5-0.4,2.5-1.2c0-0.4-0.2-0.8-0.7-1.1c-0.5-0.3-1.8-0.9-4.1-1.8
			c-2.1-0.8-3.5-1.8-4.3-2.9c-0.8-1.1-1.2-2.4-1.2-4.1c0-2.1,0.8-3.7,2.4-4.9c1.6-1.2,3.9-1.7,6.8-1.7c1.5,0,2.9,0.2,4.2,0.5
			c1.3,0.3,2.7,0.8,4.1,1.4l-2.1,5c-1-0.5-2.1-0.9-3.3-1.2s-2.1-0.5-2.8-0.5c-1.3,0-1.9,0.3-1.9,0.9c0,0.4,0.2,0.7,0.7,1
			s1.7,0.8,3.8,1.7c1.6,0.6,2.8,1.3,3.5,1.9c0.8,0.6,1.3,1.4,1.7,2.2C190.2,200.8,190.4,201.8,190.4,203z"/>
		<path class="st0" d="M207.4,209.9l-1.5-3h-0.2c-1,1.3-2.1,2.2-3.2,2.7s-2.5,0.7-4.2,0.7c-2.1,0-3.8-0.6-5-1.9s-1.8-3.1-1.8-5.4
			c0-2.4,0.8-4.2,2.5-5.3c1.7-1.2,4.1-1.8,7.2-2l3.8-0.1v-0.3c0-1.9-0.9-2.8-2.7-2.8c-1.6,0-3.7,0.6-6.3,1.7l-2.2-5.1
			c2.6-1.3,5.9-2,9.9-2c2.9,0,5.1,0.7,6.7,2.1c1.6,1.4,2.4,3.4,2.4,6v14.7H207.4z M201.6,204.8c0.9,0,1.7-0.3,2.4-0.9s1-1.4,1-2.3
			v-1.7l-1.8,0.1c-2.6,0.1-3.8,1-3.8,2.8C199.4,204.1,200.1,204.8,201.6,204.8z"/>
		<path class="st0" d="M243.6,209.9v-12.2c0-1.5-0.2-2.7-0.6-3.4s-1.1-1.1-2-1.1c-1.2,0-2.1,0.5-2.6,1.5c-0.6,1-0.8,2.6-0.8,4.8
			v10.5h-7.8v-12.2c0-1.5-0.2-2.7-0.6-3.4c-0.4-0.8-1-1.1-1.9-1.1c-1.2,0-2.1,0.5-2.7,1.6s-0.8,2.9-0.8,5.3v9.8H216v-22.5h5.9l1,2.8
			h0.5c0.6-1,1.5-1.8,2.6-2.4c1.1-0.5,2.4-0.8,3.9-0.8c3.2,0,5.5,1,6.8,3h0.6c0.6-0.9,1.5-1.7,2.6-2.2c1.1-0.5,2.4-0.8,3.7-0.8
			c2.7,0,4.6,0.7,5.9,2c1.3,1.4,1.9,3.4,1.9,6.2v14.6H243.6z"/>
		<path class="st0" d="M269.3,209.9l-1.5-3h-0.2c-1,1.3-2.1,2.2-3.2,2.7s-2.5,0.7-4.2,0.7c-2.1,0-3.8-0.6-5-1.9s-1.8-3.1-1.8-5.4
			c0-2.4,0.8-4.2,2.5-5.3c1.7-1.2,4.1-1.8,7.2-2l3.8-0.1v-0.3c0-1.9-0.9-2.8-2.7-2.8c-1.6,0-3.7,0.6-6.3,1.7l-2.2-5.1
			c2.6-1.3,5.9-2,9.9-2c2.9,0,5.1,0.7,6.7,2.1c1.6,1.4,2.4,3.4,2.4,6v14.7H269.3z M263.5,204.8c0.9,0,1.7-0.3,2.4-0.9s1-1.4,1-2.3
			v-1.7l-1.8,0.1c-2.6,0.1-3.8,1-3.8,2.8C261.3,204.1,262,204.8,263.5,204.8z"/>
		<path class="st0" d="M285.4,197.2c0.9-1.5,1.7-2.7,2.4-3.5l5-6.4h8.7l-7.8,9.6l8.3,12.9h-8.9l-4.9-8.1l-2.5,1.9v6.1h-7.8V179h7.8
			v12.1c0,2.1-0.1,4.1-0.4,6.1H285.4z"/>
		<path class="st0" d="M320,203c0,2.4-0.8,4.2-2.5,5.5c-1.6,1.2-4,1.8-7.1,1.8c-1.7,0-3.1-0.1-4.3-0.3c-1.2-0.2-2.5-0.5-3.8-1v-6.2
			c1.2,0.5,2.5,1,4,1.3c1.4,0.3,2.7,0.5,3.8,0.5c1.7,0,2.5-0.4,2.5-1.2c0-0.4-0.2-0.8-0.7-1.1c-0.5-0.3-1.8-0.9-4.1-1.8
			c-2.1-0.8-3.5-1.8-4.3-2.9c-0.8-1.1-1.2-2.4-1.2-4.1c0-2.1,0.8-3.7,2.4-4.9c1.6-1.2,3.9-1.7,6.8-1.7c1.5,0,2.9,0.2,4.2,0.5
			c1.3,0.3,2.7,0.8,4.1,1.4l-2.1,5c-1-0.5-2.1-0.9-3.3-1.2s-2.1-0.5-2.8-0.5c-1.3,0-1.9,0.3-1.9,0.9c0,0.4,0.2,0.7,0.7,1
			s1.7,0.8,3.8,1.7c1.6,0.6,2.8,1.3,3.5,1.9c0.8,0.6,1.3,1.4,1.7,2.2C319.8,200.8,320,201.8,320,203z"/>
		<path class="st0" d="M338.3,209.9l-1-2.8h-0.5c-0.6,1-1.6,1.8-2.7,2.4s-2.5,0.8-4.1,0.8c-2.5,0-4.4-0.7-5.8-2.2
			c-1.4-1.4-2.1-3.5-2.1-6.1v-14.6h7.8v12.3c0,1.5,0.2,2.6,0.6,3.3c0.4,0.8,1.1,1.1,2.1,1.1c1.3,0,2.3-0.5,2.9-1.6
			c0.6-1.1,0.9-2.8,0.9-5.3v-9.8h7.8v22.5H338.3z"/>
	</g>
</g>
</svg>
