<?xml version="1.0" encoding="utf-8"?>
<!-- Generator: Adobe Illustrator 22.0.1, SVG Export Plug-In . SVG Version: 6.00 Build 0)  -->
<svg version="1.1" id="Layer_1" xmlns="http://www.w3.org/2000/svg" xmlns:xlink="http://www.w3.org/1999/xlink" x="0px" y="0px"
	 viewBox="0 0 168.3 106.4" style="enable-background:new 0 0 168.3 106.4;" xml:space="preserve">
<style type="text/css">
	.st0{fill:#F26522;}
	.st1{fill:#E51B24;}
	.st2{fill:#231F20;}
	.st3{fill:#F99F1C;}
</style>
<path id="XMLID_1775_" d="M47.1,98v-6c0-2.3-1.4-3.8-3.8-3.8c-1.2,0-2.5,0.4-3.4,1.7c-0.7-1.1-1.7-1.7-3.2-1.7c-1,0-2,0.3-2.8,1.4
	v-1.2h-2.1V98H34v-5.3c0-1.7,0.9-2.5,2.3-2.5c1.4,0,2.1,0.9,2.1,2.5V98h2.1v-5.3c0-1.7,1-2.5,2.3-2.5c1.4,0,2.1,0.9,2.1,2.5V98H47.1
	z M78.2,88.4h-3.4v-2.9h-2.1v2.9h-1.9v1.9h1.9v4.4c0,2.2,0.9,3.5,3.3,3.5c0.9,0,1.9-0.3,2.6-0.7L78,95.7c-0.6,0.4-1.3,0.5-1.8,0.5
	c-1,0-1.4-0.6-1.4-1.6v-4.3h3.4V88.4z M95.9,88.2c-1.2,0-2,0.6-2.5,1.4v-1.2h-2.1V98h2.1v-5.4c0-1.6,0.7-2.5,2-2.5
	c0.4,0,0.9,0.1,1.3,0.2l0.6-2C96.9,88.3,96.3,88.2,95.9,88.2L95.9,88.2z M69.1,89.2c-1-0.7-2.4-1-3.9-1c-2.4,0-4,1.2-4,3.1
	c0,1.6,1.2,2.5,3.3,2.8l1,0.1c1.1,0.2,1.7,0.5,1.7,1c0,0.7-0.8,1.2-2.2,1.2c-1.4,0-2.5-0.5-3.2-1l-1,1.6c1.1,0.8,2.6,1.2,4.1,1.2
	c2.8,0,4.4-1.3,4.4-3.1c0-1.7-1.3-2.6-3.3-2.9l-1-0.1c-0.9-0.1-1.6-0.3-1.6-0.9c0-0.7,0.7-1.1,1.8-1.1c1.2,0,2.4,0.5,3,0.8
	L69.1,89.2z M124.8,88.2c-1.2,0-2,0.6-2.5,1.4v-1.2h-2.1V98h2.1v-5.4c0-1.6,0.7-2.5,2-2.5c0.4,0,0.9,0.1,1.3,0.2l0.6-2
	C125.8,88.3,125.2,88.2,124.8,88.2L124.8,88.2z M98,93.2c0,2.9,2,5,5.1,5c1.4,0,2.4-0.3,3.4-1.1l-1-1.7c-0.8,0.6-1.6,0.9-2.5,0.9
	c-1.7,0-2.9-1.2-2.9-3.1c0-1.8,1.2-3,2.9-3.1c0.9,0,1.7,0.3,2.5,0.9l1-1.7c-1-0.8-2-1.1-3.4-1.1C100,88.2,98,90.3,98,93.2L98,93.2z
	 M117.5,93.2v-4.8h-2.1v1.2c-0.7-0.9-1.7-1.4-3-1.4c-2.7,0-4.8,2.1-4.8,5c0,2.9,2.1,5,4.8,5c1.4,0,2.4-0.5,3-1.4V98h2.1V93.2z
	 M109.7,93.2c0-1.7,1.1-3.1,2.9-3.1c1.7,0,2.9,1.3,2.9,3.1c0,1.7-1.2,3.1-2.9,3.1C110.8,96.3,109.7,94.9,109.7,93.2L109.7,93.2z
	 M84.6,88.2c-2.8,0-4.8,2-4.8,5c0,3,2,5,4.9,5c1.4,0,2.8-0.4,3.9-1.3l-1-1.5c-0.8,0.6-1.8,1-2.8,1c-1.3,0-2.6-0.6-2.9-2.3h7.1
	c0-0.3,0-0.5,0-0.8C89.2,90.2,87.3,88.2,84.6,88.2L84.6,88.2z M84.6,90.1c1.3,0,2.2,0.8,2.4,2.3h-5C82.3,91,83.1,90.1,84.6,90.1
	L84.6,90.1z M136.8,93.2v-8.6h-2.1v5c-0.7-0.9-1.7-1.4-3-1.4c-2.7,0-4.8,2.1-4.8,5c0,2.9,2.1,5,4.8,5c1.4,0,2.4-0.5,3-1.4V98h2.1
	V93.2z M129,93.2c0-1.7,1.1-3.1,2.9-3.1c1.7,0,2.9,1.3,2.9,3.1c0,1.7-1.2,3.1-2.9,3.1C130.1,96.3,129,94.9,129,93.2L129,93.2z
	 M58.8,93.2v-4.8h-2.1v1.2c-0.7-0.9-1.7-1.4-3-1.4c-2.7,0-4.8,2.1-4.8,5c0,2.9,2.1,5,4.8,5c1.4,0,2.4-0.5,3-1.4V98h2.1V93.2z
	 M51.1,93.2c0-1.7,1.1-3.1,2.9-3.1c1.7,0,2.9,1.3,2.9,3.1c0,1.7-1.2,3.1-2.9,3.1C52.2,96.3,51.1,94.9,51.1,93.2z M140.2,96.6
	c0.1,0,0.3,0,0.4,0.1c0.1,0,0.2,0.1,0.3,0.2c0.1,0.1,0.2,0.2,0.2,0.3s0.1,0.2,0.1,0.4c0,0.1,0,0.3-0.1,0.4c-0.1,0.1-0.1,0.2-0.2,0.3
	c-0.1,0.1-0.2,0.2-0.3,0.2c-0.1,0.1-0.2,0.1-0.4,0.1c-0.1,0-0.3,0-0.4-0.1c-0.1-0.1-0.2-0.1-0.3-0.2c-0.1-0.1-0.2-0.2-0.2-0.3
	c-0.1-0.1-0.1-0.2-0.1-0.4c0-0.1,0-0.3,0.1-0.4c0.1-0.1,0.1-0.2,0.2-0.3c0.1-0.1,0.2-0.2,0.3-0.2C140,96.6,140.1,96.6,140.2,96.6z
	 M140.2,98.3c0.1,0,0.2,0,0.3-0.1c0.1,0,0.2-0.1,0.2-0.2c0.1-0.1,0.1-0.1,0.2-0.2c0-0.1,0.1-0.2,0.1-0.3c0-0.1,0-0.2-0.1-0.3
	c0-0.1-0.1-0.2-0.2-0.2c-0.1-0.1-0.1-0.1-0.2-0.2s-0.2-0.1-0.3-0.1c-0.1,0-0.2,0-0.3,0.1c-0.1,0-0.2,0.1-0.2,0.2
	c-0.1,0.1-0.1,0.1-0.2,0.2c0,0.1-0.1,0.2-0.1,0.3c0,0.1,0,0.2,0.1,0.3c0,0.1,0.1,0.2,0.2,0.2c0.1,0.1,0.1,0.1,0.2,0.2
	C140,98.3,140.1,98.3,140.2,98.3z M140.3,97.1c0.1,0,0.2,0,0.3,0.1c0.1,0.1,0.1,0.1,0.1,0.2c0,0.1,0,0.1-0.1,0.2
	c0,0-0.1,0.1-0.2,0.1l0.3,0.3h-0.2l-0.3-0.3h-0.1V98h-0.2v-0.9H140.3z M140.1,97.3v0.2h0.2c0,0,0.1,0,0.1,0c0,0,0,0,0-0.1
	c0,0,0-0.1,0-0.1c0,0-0.1,0-0.1,0H140.1z"/>
<rect x="68.4" y="15.6" class="st0" width="31.5" height="56.6"/>
<path id="XMLID_330_" class="st1" d="M70.4,43.9c0-11.5,5.4-21.7,13.7-28.3C78,10.8,70.3,7.9,61.9,7.9c-19.9,0-36,16.1-36,36
	c0,19.9,16.1,36,36,36c8.4,0,16.1-2.9,22.2-7.7C75.8,65.6,70.4,55.4,70.4,43.9z"/>
<path class="st2" d="M139,66.2V65h0.5v-0.2h-1.2V65h0.5v1.2H139z M141.3,66.2v-1.4h-0.4l-0.4,1l-0.4-1h-0.4v1.4h0.3v-1.1l0.4,0.9
	h0.3l0.4-0.9v1.1H141.3z"/>
<path class="st3" d="M142.4,43.9c0,19.9-16.1,36-36,36c-8.4,0-16.1-2.9-22.2-7.7c8.4-6.6,13.7-16.8,13.7-28.3s-5.4-21.7-13.7-28.3
	c6.1-4.8,13.8-7.7,22.2-7.7C126.3,7.9,142.4,24,142.4,43.9z"/>
</svg>
