<?xml version="1.0" encoding="utf-8"?>
<!-- Generator: Adobe Illustrator 25.4.1, SVG Export Plug-In . SVG Version: 6.00 Build 0)  -->
<svg version="1.1" id="Layer_1" xmlns="http://www.w3.org/2000/svg" xmlns:xlink="http://www.w3.org/1999/xlink" x="0px" y="0px"
	 viewBox="0 0 400 111" style="enable-background:new 0 0 400 111;" xml:space="preserve">
<style type="text/css">
	.st0{fill:none;}
	.st1{fill:#6E6E6E;}
</style>
<g id="Page-1">
	<g id="OP_lasku_hubspot_2">
		<rect id="Rectangle" y="-143" class="st0" width="400" height="400"/>
		<g id="OP_lasku_shopify-Copy" transform="translate(9.000000, 160.000000)">
			<path id="Shape" class="st1" d="M51.5-92.5v-21.9c0-14.3-6.4-28.5-25.6-28.5c-19.3,0-25.7,14.3-25.7,28.5v21.9
				c0,14.3,6.4,28.5,25.7,28.5C45.1-63.9,51.5-78.2,51.5-92.5z M44.6-92.5c0,12-4.7,22.1-18.7,22.1c-14.1,0-18.8-10-18.8-22.1v-21.9
				c0-12,4.7-22.1,18.8-22.1c13.9,0,18.7,10,18.7,22.1V-92.5z"/>
			<path id="Shape_00000129196451165936354750000004181782040126878856_" class="st1" d="M113.5-116.2v-5.4
				c0-9.8-6.4-20.3-24.3-20.3H69c-1.9,0-3.5,1.6-3.5,3.5v71c0,2,1.6,3.5,3.5,3.5c2,0,3.5-1.5,3.5-3.5v-28.9h17.9
				C104.9-96.4,113.5-104.6,113.5-116.2z M106.5-116.3c0,7.4-5.1,13.5-16.4,13.5H72.5v-32.5h16.4c13.8,0,17.7,7.6,17.7,13.8V-116.3z
				"/>
			<path id="Path" class="st1" d="M197.1-68.2c0-1.9-1.5-3.5-3.3-3.5h-34.1v-67.7c0-1.9-1.5-3.5-3.5-3.5c-1.9,0-3.5,1.6-3.5,3.5
				v71.2c0,1.8,1.5,3.3,3.4,3.3h37.6C195.7-64.9,197.1-66.4,197.1-68.2z"/>
			<path id="Shape_00000116222025955443350630000002581540582268578227_" class="st1" d="M242.9-67.3c0-1.2-0.5-2.1-1.7-2.6
				c-2.3-1-3-2.3-3-6.9v-20.8c0-12.9-3.8-20.4-18.6-20.4c-4.1,0-8.3,0.5-11.7,1.9c-2.7,1.2-4.5,2.5-4.5,4.3c0,1.6,1.3,2.9,2.8,2.9
				c1.3,0,2.3-0.8,4.7-1.9c2.1-0.8,4.6-1.4,8.4-1.4c10,0,12.3,4.6,12.3,14.2v3h-13.2c-13.4,0-18.7,6.7-18.7,14.9v0.8
				c0,8.1,4.9,15.1,18.1,15.1c4.6,0,10.9-1.1,14.7-5.9c0.5,1.6,1.4,3.2,2.5,4.2c1.3,1.1,2.7,1.7,4.4,1.7
				C241.5-64.3,242.9-65.3,242.9-67.3z M231.6-82.5c0,8.5-4.8,12.6-13,12.6c-9.8,0-12.3-4.5-12.3-9.4v-0.7c0-4.8,2.5-9.4,12.5-9.4
				h12.8V-82.5z"/>
			<path id="Path_00000147219205497915558150000005633193036366259589_" class="st1" d="M284.9-80c0-10.8-7.9-12.8-15.5-14.4
				c-6.9-1.4-13.5-2.3-13.5-8.9c0-5.2,3.8-8.9,10.9-8.9c4.4,0,7.2,0.6,10.7,2c1.7,0.7,3.3-0.2,3.9-1.6c0.6-1.6,0.1-3.5-1.7-4.1
				c-3.9-1.7-7.6-2.2-13-2.2c-10,0-17.2,5.5-17.2,15c0,9.9,6.9,12.3,14.1,13.8c7.4,1.6,14.9,2.1,14.9,9.4c0,5.6-3.7,9.5-12.5,9.5
				c-5.9,0-9.1-0.7-12.6-2c-1.7-0.7-3.4,0.1-3.9,1.7c-0.6,1.5-0.1,3.4,1.7,4c4.1,1.6,8.2,2.3,14.7,2.3
				C277.4-64.3,284.9-69.8,284.9-80z"/>
			<path id="Path_00000086668331528243699160000004735550212257505945_" class="st1" d="M332-69c-4.9-9.6-11.2-19.2-17.6-27.8
				l15.6-16.1c1.3-1.2,1.3-3.2,0.1-4.3c-1.3-1.2-3.1-1.2-4.4,0l-24.1,24.9V-138c0-1.9-1.6-3.4-3.4-3.4c-1.9,0-3.4,1.5-3.4,3.4v70.4
				c0,1.9,1.5,3.4,3.4,3.4c1.8,0,3.4-1.5,3.4-3.4v-16.2l8.1-8.3c6,8,11.9,17,16.5,26c0.6,1.4,1.8,1.9,2.8,1.9
				C331.1-64.3,333.2-66.4,332-69z"/>
			<path id="Path_00000006694570134093284290000006502006608993343381_" class="st1" d="M383-67.3c0-1.2-0.6-2.1-1.8-2.6
				c-2.3-1-3.4-2.2-3.4-6.9v-37.8c0-1.9-1.5-3.4-3.4-3.4s-3.4,1.4-3.4,3.4v35.5c-2.4,5.1-7.1,8.3-14.7,8.3c-9,0-11.2-4.9-11.2-12.9
				v-31c0-2-1.5-3.4-3.4-3.4c-1.8,0-3.4,1.4-3.4,3.4v31.4c0,10.6,3.8,19,17,19c7.6,0,12.9-2.4,16.5-6.6c0.4,1.6,1.3,3.1,2.6,4.3
				c1.4,1.4,3.7,2.2,5,2.2C381.4-64.3,383-65.3,383-67.3z"/>
		</g>
	</g>
</g>
</svg>
