<?xml version="1.0" encoding="utf-8"?>
<!-- Generator: Adobe Illustrator 22.0.1, SVG Export Plug-In . SVG Version: 6.00 Build 0)  -->
<svg version="1.1" id="Layer_1" xmlns="http://www.w3.org/2000/svg" xmlns:xlink="http://www.w3.org/1999/xlink" x="0px" y="0px"
	 viewBox="0 0 147.5 33.1" style="enable-background:new 0 0 147.5 33.1;" xml:space="preserve">
<style type="text/css">
	.st0{fill-rule:evenodd;clip-rule:evenodd;fill:#8DC63F;}
	.st1{fill-rule:evenodd;clip-rule:evenodd;fill:#00AB4E;}
</style>
<path class="st0" d="M145.3,13.3c0,0-0.6,0.1-0.6,0.1c0,0,0,0,0,0c0,0,0,0,0,0c0,0-0.1-0.1-0.1-0.1c-0.2,0.1-0.4,0.1-0.6,0.1
	c-0.2,0-0.3-0.1-0.5-0.2c-0.1,0-0.2,0.1-0.4,0.1c-0.1,0-0.3,0-0.4-0.1c-0.2,0-0.3-0.1-0.4-0.3c0-0.1-0.1-0.2-0.2-0.4
	c-0.1,0.1-0.2,0.1-0.3,0.1c-0.1,0-0.2,0-0.3-0.1c0,0-0.1,0-0.1-0.1c0,0,0,0,0,0c0,0,0,0.1-0.1,0.1c-0.1,0.2-0.3,0.3-0.5,0.3
	c0,0-0.1,0-0.1,0c-0.1,0-0.2,0-0.3-0.1c0,0,0,0,0,0c0,0,0,0.1,0,0.1c-0.1,0.4-0.3,0.6-0.5,0.6c-0.1,0-0.1,0-0.2,0
	c0,0.1-0.1,0.2-0.1,0.3c-0.1,0.1-0.1,0.1-0.2,0.2c-0.1,0.2-0.2,0.4-0.4,0.6c-0.1,0.1-0.1,0.1-0.2,0.1c-0.1,0.2-0.2,0.5-0.4,0.8
	c-0.2,0.2-0.4,0.5-0.7,0.7c4-0.3,6.8-1.7,8-2.7C145.7,13.3,145.5,13.4,145.3,13.3"/>
<path class="st1" d="M147.3,9.6c-0.3,0-0.3-0.2-0.3-0.2s0.7-0.7,0.5-0.7c-0.1,0-0.1,0-0.1,0s0.1-0.6-0.2-0.5
	c-0.2,0.1-0.3,0.1-0.3,0.1s-0.1-0.2,0-0.3c0.1-0.1-0.3,0-0.3,0s0.8-0.9,0.5-0.8c-0.2,0.1-0.2-0.1-0.2-0.1s0.2-0.1,0.3-0.2
	c0.1-0.1,0.2-0.3,0.1-0.3c-0.1,0-0.2-0.1-0.2-0.1s0.4-0.8,0.2-0.7c-0.5,0.2-0.6,0-0.6,0s0.2-0.6,0.1-0.7c0,0-0.3,0-0.1-0.1
	c0.1-0.1,0.3-0.4,0.3-0.4c0,0-0.2,0.1-0.1-0.1c0.1-0.2,0.2-0.6,0.1-0.5c-0.2,0-0.3-0.2-0.3-0.2s0.5-0.5,0.5-0.8c0,0-0.6-0.1-0.5-0.1
	c0.4-0.2,0.6-0.6,0.6-0.7c0-0.1-0.3,0-0.3-0.1c0.3-0.1,0.2-0.5,0.3-0.7c0-0.1-0.3-0.1-0.3-0.1S146.8,1,147,0.9
	c0.2-0.2,0.3-0.4,0.2-0.4c-0.3,0,0-0.2,0-0.3c0,0,0.2-0.2,0.1-0.2c-0.3,0-0.7,0.3-0.7,0.3s-0.1-0.1-0.1-0.1c0,0.1-0.1,0.3-0.2,0.4
	C146.2,0.8,146,1,146,1s-0.2-0.2-0.2-0.2c0,0-0.1,0.2-0.1,0.3c-0.1,0.1-0.2,0.3-0.2,0.3s-0.1-0.1-0.1,0c0,0.1-0.1,0.3-0.1,0.3
	s-0.2-0.3-0.2-0.3c0,0,0,0-0.2,0.5c-0.1,0.2-0.3,0.3-0.3,0.3s-0.1-0.2-0.1-0.1c0,0.3-0.3,0.5-0.3,0.5s-0.3-0.2-0.3-0.3
	c-0.2,0-0.3,0.3-0.5,0.5c-0.2,0.2-0.4,0.3-0.4,0.3c0,0,0-0.2-0.2-0.2c-0.1,0.3-0.4,0.6-0.4,0.6s-0.1-0.3-0.2-0.3
	c-0.1,0.1-0.2,0.1-0.2,0.1s0-0.2-0.1-0.3c-0.1-0.1-0.1-0.2-0.2-0.2c0,0.1-0.2,0.2-0.3,0.3c-0.1,0.1-0.3,0.1-0.3,0.1
	s-0.2-0.3-0.2-0.2c0,0,0,0.3-0.1,0.4c-0.1,0.2-0.2,0.3-0.2,0.3s-0.2-0.2-0.2-0.1c0,0-0.1,0.2-0.2,0.3c0,0.2-0.2,0.3-0.2,0.3
	s0-0.1-0.1-0.2c0-0.1-0.1-0.1-0.1-0.1c0,0-0.1,0-0.1,0.1c0,0-0.1,0-0.1,0c0-0.1-0.1-0.3-0.2-0.5c-0.1-0.1-0.2-0.4-0.3-0.3
	c-0.1,0.1-0.1,0.2-0.2,0.2c-0.1,0.1-0.2,0.1-0.2,0.1s-0.1-0.1-0.1-0.1c0,0.1,0,0.2-0.1,0.3c-0.1,0.1-0.1,0.2-0.2,0.2
	c0,0-0.2-0.2-0.3-0.2c0,0-0.1,0.3-0.2,0.5c-0.1,0.2-0.3,0.5-0.3,0.5s0-0.1-0.1-0.1c0-0.1-0.1-0.2-0.2-0.1c0,0.1-0.1,0.2-0.2,0.3
	c-0.1,0.1-0.3,0.2-0.3,0.2S137,5.1,137,5c0-0.1-0.1,0-0.1,0s-0.1,0-0.1,0c0,0-0.1,0.1-0.1,0.1s-0.2-0.2-0.3-0.3
	c-0.1-0.1-0.2-0.1-0.2-0.1c-0.2,0.1-0.2,0.2-0.4,0.3c-0.3,0.1-0.4,0.7-0.4,0.7s-0.1,0-0.1-0.1c-0.1,0-0.1,0-0.1,0
	c-0.2,0,0,0.4-0.1,0.6c-0.1,0.3-0.2,0.6-0.2,0.6s-0.2-0.2-0.3-0.1c0,0.1-0.1,0.3-0.1,0.4c-0.1,0.2-0.2,0.4-0.2,0.4
	c-0.2,0-0.4-0.1-0.5-0.2c-0.2-0.1-0.2-0.4-0.4-0.4c0,0.4-0.3,0.9-0.3,0.9s-0.1-0.1-0.2,0c0,0.1,0.1,0.2,0.1,0.4c0,0.2,0,0.5,0,0.5
	s-0.1-0.1-0.3,0c0.2,0.5,0.1,1.1,0.1,1.1s-0.2-0.1-0.4,0c-0.1,0.2,0.1,0.5,0.2,0.8c0.1,0.2,0,0.5,0,0.5s-0.2,0-0.3,0.2
	c0.2,1.5,2.9,3.6,3.3,4c0.2,0.2,0.2,0.1,0.2,0.3c0.1,0.4-0.5,0.8-0.5,0.8c0,0-0.8,0.5-3.1,0.5h-1.8l-4.5,5.9v-14l-3.8,1.8v22.2h3.8
	v-6.8l4.2,6.8h5.1l-6-9.1l4.6-5.5c0.9-1,2-1.5,2.4-1.8c1.6-1,1.7-2.2,1.7-2.2s0.1-0.1,0.2,0c0,0.1,0.1,0.1,0.1,0.1
	c0,0,0.2-0.2,0.2-0.3c0,0-0.1-0.3,0-0.3c0.1,0,0.1,0,0.2,0c0.1,0,0.2,0,0.2,0c0,0,0-0.2,0-0.3c0,0,0.1,0,0.1-0.1
	c0-0.2,0.1-0.2,0.1-0.2s0.2,0,0.4,0c0.1,0.1,0.1,0,0.1,0c0.1,0,0.1-0.2,0.1-0.3c0.1-0.1,0.1-0.2,0.2-0.3c0.3-0.2,0.4-0.3,0.4-0.3
	s0.2,0,0.2,0.1c0.1,0.1,0.3,0.1,0.3,0.1c0,0,0.1-0.2,0.3-0.4c0.2-0.1,0.4-0.1,0.4-0.1s0,0,0.1,0.1c0,0.1,0.2,0.2,0.2,0.2
	s0.1-0.2,0.5-0.2c0.4-0.1,0.6-0.1,0.6-0.1c0,0,0,0.4,0,0.6c0,0.2,0.1,0.3,0.1,0.3s0,0,0.1,0c0,0,0.1,0,0.1,0c0,0,0,0.1,0,0.1
	c0,0,0,0.1,0,0.1s0,0,0.2,0c0.1-0.1,0.5-0.2,0.5-0.2c0,0-0.1,0.1,0,0.2c0.1,0,0.2,0.1,0.2,0.1c0.1,0,0.2,0,0.5-0.2s0.4-0.2,0.4-0.2
	c0,0,0,0.2,0,0.2c0.1,0,0.2,0,0.2,0c0,0,0,0.1,0,0.1c0,0,0,0,0,0.1c0,0,0,0.1,0,0.2c0.1,0.1,0.6-0.1,0.6-0.1c0.1,0.3,0.5,0,0.6-0.1
	c0,0,0-0.2,0.1-0.2c0.4-0.2,0.6-0.5,0.4-0.4c-0.1,0-0.2-0.1-0.2-0.1c0.1-0.1,0.6-0.7,0.4-0.7c-0.3,0.1-0.5,0.1-0.5,0.1
	s0.2-0.1,0.1-0.3c0,0-0.5,0-0.3-0.2c0.1-0.1,0.3-0.4,0.2-0.3c-0.1,0-0.1-0.1-0.1-0.1s0.2,0,0.4-0.2C147.2,9.9,147.4,9.6,147.3,9.6"
	/>
<path class="st1" d="M48,10.3c-2.3,0-5.3,0.2-7,0.2v22.1h4.2v-7.1h0v-3c0,0,0,0,0,0v-9.2c0.5,0,1.3,0,2,0c3,0,4.5,1.4,4.5,4.8
	c0,4-2.6,4.5-4.2,4.5l-1.4,3c0.3,0,0.7,0,1.1,0c1.2,0,4.2,0,6.3-1.8c1.4-1.2,2.6-3.1,2.6-6c0-2.2-0.7-4.1-1.8-5.4
	C52.6,10.4,50,10.3,48,10.3"/>
<path class="st1" d="M35.3,12.7c-2.6-2.5-6.3-2.7-7.1-2.7c-2.7,0-5.5,0.5-8.2,2.9c-2.2,2-3.7,4.8-3.7,8.8c0,5.3,3,11.4,10.8,11.4
	c5.9,0,11.6-3.8,11.6-11.7C38.7,16.6,36.6,13.9,35.3,12.7 M27.8,30.4c-3.7,0-7-3.4-7-9.1c0-4.5,2.1-8.5,6.5-8.5c3.7,0,7,3.4,7,9.2
	C34.2,28.6,30.2,30.4,27.8,30.4z"/>
<path class="st1" d="M7,10.3c-2.3,0-5.3,0.2-7,0.2v22.1h4.2v-6.9l0,0l0-3.8h0v-8.6c0.5,0,1.3,0,2.1,0c3,0,4.5,1.4,4.5,4.8
	c0,4.1-2.6,4.5-4.2,4.5l-1.4,3c0.3,0,0.7,0,1.1,0c1.2,0,4.2,0,6.3-1.8c1.4-1.2,2.6-3.1,2.6-6c0-2.2-0.7-4.1-1.8-5.4
	C11.6,10.4,9,10.3,7,10.3"/>
<polyline class="st1" points="120.5,16.7 116.1,16.7 111.5,22.6 111.5,8.6 107.7,10.4 107.7,32.6 111.5,32.6 111.5,25.8 115.7,32.6 
	120.8,32.6 114.8,23.5 120.5,16.7 "/>
<polyline class="st1" points="136.7,32.6 140.6,32.6 140.6,16.7 136.7,18.7 136.7,32.6 "/>
<path class="st1" d="M101.2,16.3c-1.8,0-3.7,1.1-5.2,2.3l0.1-1.9l-3.9,1.9v14h3.9V21.7c0.5-0.5,1.9-1.7,3.4-1.7
	c1.7,0,1.7,1.4,1.7,3.9v8.7h3.9v-9.8c0-1.9,0-3.4-0.6-4.5C104,17.4,103,16.3,101.2,16.3"/>
<path class="st1" d="M75.3,12.5c-1.8-2-4.4-2.1-6.4-2.1c-2.3,0-5.3,0.2-7,0.2v22.1h4.2v-6.9l0,0l0-3.8h0v-8.6c0.5,0,1.3,0,2.1,0
	c3,0,4.5,1.4,4.5,4.8c0,4.1-2.6,4.5-4.2,4.5l-1.4,3c0.3,0,0.7,0,1.1,0c1.2,0,4.2,0,6.3-1.8c1.4-1.2,2.6-3.1,2.6-6
	C77.1,15.6,76.4,13.7,75.3,12.5"/>
<path class="st1" d="M89,29.6c-0.7,0-0.7-0.5-0.7-1.4l0.1-5.7c0-1.7,0-2.7-0.4-3.9c-0.4-1-1.7-2.3-4.4-2.3c-1.2,0-3.4,0.3-5.4,1.6
	l1.1,2.8c0.6-0.6,1.6-1.3,3.2-1.3c0.4,0,1.2,0,1.7,0.6c0.4,0.4,0.4,0.8,0.4,3.1c-6.6,1-7.9,1.8-7.9,5.3c0,4.1,2.4,4.6,3.3,4.6
	c1.7,0,3.4-0.8,4.9-1.5C85.2,32,85.6,33,87,33c1.8,0,3.6-1.2,3.7-1.3c0,0,0,0,0,0l-0.9-2.2C89.6,29.6,89.3,29.6,89,29.6 M84.6,29.1
	c-1.3,0.4-1.8,0.6-2.6,0.6c-1.2,0-1.6-0.5-1.6-1.8c0-1.3,0.3-1.5,1.2-1.7c0.2-0.1,1.5-0.4,3-0.6V29.1z"/>
</svg>
