<?xml version="1.0" encoding="utf-8"?>
<!-- Generator: Adobe Illustrator 22.0.1, SVG Export Plug-In . SVG Version: 6.00 Build 0)  -->
<svg version="1.1"
	 id="svg10" xmlns:cc="http://creativecommons.org/ns#" xmlns:dc="http://purl.org/dc/elements/1.1/" xmlns:rdf="http://www.w3.org/1999/02/22-rdf-syntax-ns#" xmlns:svg="http://www.w3.org/2000/svg"
	 xmlns="http://www.w3.org/2000/svg" xmlns:xlink="http://www.w3.org/1999/xlink" x="0px" y="0px" viewBox="0 0 706.3 141.3"
	 style="enable-background:new 0 0 706.3 141.3;" xml:space="preserve">
<style type="text/css">
	.st0{fill:#5B8F22;}
</style>
<path id="path30" class="st0" d="M674.7,18.8c0-7,5.7-12.7,12.7-12.7c7,0,12.7,5.7,12.7,12.7c0,7-5.7,12.7-12.7,12.7
	C680.4,31.4,674.7,25.8,674.7,18.8 M358.3,43.8v2.4c9.3,5.1,8,11,8,20.4v48.8c0,9.4,1.3,15.1-8,20.3v2.5h35.2v-2.5
	c-9.3-5.1-8-10.6-8-20V82.8c0-14.8,8.7-27.3,24.3-27.3c17,0,23.5,10.3,23.5,28.8v31.3c0,9.2,1.3,14.9-8,20.1v2.5h35.2v-2.5
	c-9.3-5.1-8-10.6-8-20.1V77.2c0-31-22.3-36-37.3-36c-12.3,0-23.9,6.1-29.7,15.8V41.2H383c-4.4,2.5-7.7,2.6-12.3,2.6L358.3,43.8z
	 M86.7,5.4c-10-3-20.7-4.5-31.1-4.5c-26.7,0-52.5,9.7-52.5,35.4C3.1,80,73.8,75,73.8,105.5c0,11.9-15.1,18.9-29.2,18.9
	c-16.3,0-34.1-6.6-44.6-16.4l5.4,27.2c11.9,4.3,24.7,6.1,37.4,6.1c34.9,0,56-16.2,56-39.6c0-37.6-70.3-39.7-70.3-67.6
	c0-11.9,13.8-17.2,25.8-17.2c11.7,0,25.1,4.7,32.5,11.4V5.4z M114,65.7c1.8-1.9,4.5-3.5,6.8-3.5h43.5c2.3,0,2.2,1.6,0.4,3.5
	l-7.8,8.6c-1.8,1.9-4.6,3.5-6.8,3.5h-43.6c-2.1,0-2.2-1.6-0.4-3.5L114,65.7z M470.2,3.3v2.4c9.1,5.1,7.8,10.9,7.8,20.4v89.4
	c0,9.4,1.3,15.1-7.8,20.3v2.5h35.2v-2.5c-9.5-5.1-8.2-10.8-8.2-20.3V0h-2.5c-2.7,3.1-6,3.3-10.6,3.3L470.2,3.3z M532.3,126.6
	c4,5.6,9.2,11.5,21.5,11.5h16.4c-9.5-5.7-15.8-14.5-22.3-22.9l-25.7-31.7l35.2-39.6h-32v2.4c1.8,0.4,4,1.3,4,4.2
	c0,5.1-7.6,12.9-10.7,16.4l-17.5,18.7L532.3,126.6z M671.1,43.8v2.4c9.3,5.1,8,10.8,8,20.2v49c0,9.4,1.3,15.1-8,20.2v2.5h35.2v-2.5
	c-9.3-5.1-8-10.8-8-20.3V40.6h-2.4c-3.6,3.1-7,3.3-11.9,3.3L671.1,43.8z M172.8,3.3v2.4C183.3,9.8,182,23,182,32.2v77.2
	c0,9.3,1.3,22.5-9.5,26.2v2.5h41.9v-2.5c-11.2-6.1-11-12.4-11-23.9V18.6c13.1,0,1,0,14.8,0c17.6,0.1,30.1,7.4,30.1,25.4
	c0,18-14.7,28.6-37.9,28.6V75c3.7,1.6,10.4,2.4,15.7,2.5c24.2,0.4,45.5-14.8,45.5-38.4c0-22.9-20.3-35.9-47.7-35.9L172.8,3.3z
	 M165.9,72.2h3.8c2.2,0,2.2,1.6,0.4,3.5l-7.8,8.6c-1.7,2-4.6,3.5-6.8,3.5H112c-2.2,0-2.2-1.6-0.4-3.5l1.2-1.3h39.7
	c2.2,0,5-1.6,6.8-3.5L165.9,72.2z M570.2,3.3v2.4c9.1,5.1,7.8,10.9,7.8,20.4v89.4c0,9.4,1.3,15.1-7.8,20.3v2.5h35.2v-2.5
	c-9.5-5.1-8.2-10.8-8.2-20.3V0h-2.5c-2.7,3.1-5.9,3.3-10.6,3.3L570.2,3.3z M632.2,126.6c4,5.6,9.3,11.5,21.5,11.5H670
	c-9.5-5.7-15.8-14.5-22.3-22.9L622,83.4l35.1-39.6h-32v2.4c1.8,0.4,4,1.3,4,4.2c0,5.1-7.6,12.9-10.8,16.4L601,85.5L632.2,126.6z
	 M358.4,126.1c-18,0-20.1-4.3-20.1-22.7l0.3-29.4c0-27.2-15.2-32.8-37.8-32.8c-3.7,0-19.4-0.2-21.2,6.5C277,57,272.9,63,272.9,63
	c7.8-4.5,16.5-7.4,27.2-7.4c7.8,0,19.2,2.4,19.2,11.1c0,21.2-62.3,10.7-62.3,46c0,18.1,14.6,28.2,35.4,28.2c3.6,0,4.2,0.1,9.9,0
	l11.9-14.6c-6.1,0.1-7.5,0-12.5,0c-14.4,0-23.4-3.3-23.4-14.7c0-9.5,11.8-14,21.7-16.3c7.8-1.8,14.5-3.3,19.3-7v31.2
	c0,16.4,12.7,20.9,27.3,20.9L358.4,126.1z"/>
</svg>
